<svg version="1.1" id="Layer_1" xmlns="http://www.w3.org/2000/svg" xmlns:xlink="http://www.w3.org/1999/xlink" x="0px" y="0px"
	 width="100%" viewBox="0 0 200 200" enable-background="new 0 0 200 200" xml:space="preserve">
<path fill="#01192D" opacity="1.000000" stroke="none" 
	d="
M99.000000,201.000000 
	C66.020325,201.000000 33.540646,201.000000 1.030484,201.000000 
	C1.030484,134.395355 1.030484,67.790695 1.030484,1.093015 
	C67.562851,1.093015 134.125885,1.093015 200.844452,1.093015 
	C200.844452,67.666382 200.844452,134.333145 200.844452,201.000000 
	C167.124313,201.000000 133.312149,201.000000 99.000000,201.000000 
M127.512230,145.109299 
	C137.869614,150.362213 148.555847,148.985260 160.379196,147.194077 
	C156.154663,145.192642 152.926468,143.871521 149.899414,142.188614 
	C142.000443,137.797150 135.350006,131.720047 134.651108,122.425903 
	C133.749817,110.440559 134.431595,98.336166 134.431595,85.578514 
	C144.468536,91.418304 150.996948,99.991158 157.693924,109.312904 
	C157.693924,99.820969 157.693924,91.435966 157.693924,82.630661 
	C149.726425,82.630661 142.125854,82.630661 133.960236,82.630661 
	C133.960236,74.190132 133.960236,66.168999 133.960236,58.173496 
	C124.526772,65.230766 115.467003,72.008469 107.625862,77.874496 
	C109.272881,83.163101 111.626923,88.001205 112.147179,93.029045 
	C112.931488,100.608681 112.312256,108.324051 112.510933,115.975975 
	C112.816895,127.760033 116.976501,137.704025 127.512230,145.109299 
M44.298412,133.920990 
	C46.703094,140.096451 51.411316,143.813141 57.400555,146.128189 
	C66.795250,149.759613 76.520317,148.558746 86.302994,148.278534 
	C77.878670,142.898499 72.832367,135.820740 72.859756,125.683662 
	C72.886909,115.633965 78.163826,108.702446 86.252762,103.023560 
	C78.088799,103.003387 70.027565,102.730179 62.329220,104.270561 
	C47.331623,107.271477 40.456280,118.787331 44.298412,133.920990 
M70.567352,92.569168 
	C78.374763,89.010857 82.378716,82.607674 79.904343,75.575012 
	C77.673409,69.234261 76.393356,63.336998 80.676468,56.861042 
	C70.870872,57.234013 63.251465,60.433613 56.996578,66.720222 
	C51.386604,72.358650 50.127888,79.122063 53.301804,85.409431 
	C56.252560,91.254738 61.803135,93.753052 70.567352,92.569168 
z"/>
<path fill="#F8F8F9" opacity="1.000000" stroke="none" 
	d="
M127.195450,144.922470 
	C116.976501,137.704025 112.816895,127.760033 112.510933,115.975975 
	C112.312256,108.324051 112.931488,100.608681 112.147179,93.029045 
	C111.626923,88.001205 109.272881,83.163101 107.625862,77.874496 
	C115.467003,72.008469 124.526772,65.230766 133.960236,58.173496 
	C133.960236,66.168999 133.960236,74.190132 133.960236,82.630661 
	C142.125854,82.630661 149.726425,82.630661 157.693924,82.630661 
	C157.693924,91.435966 157.693924,99.820969 157.693924,109.312904 
	C150.996948,99.991158 144.468536,91.418304 134.431595,85.578514 
	C134.431595,98.336166 133.749817,110.440559 134.651108,122.425903 
	C135.350006,131.720047 142.000443,137.797150 149.899414,142.188614 
	C152.926468,143.871521 156.154663,145.192642 160.379196,147.194077 
	C148.555847,148.985260 137.869614,150.362213 127.195450,144.922470 
z"/>
<path fill="#F8F8F9" opacity="1.000000" stroke="none" 
	d="
M44.184776,133.534668 
	C40.456280,118.787331 47.331623,107.271477 62.329220,104.270561 
	C70.027565,102.730179 78.088799,103.003387 86.252762,103.023560 
	C78.163826,108.702446 72.886909,115.633965 72.859756,125.683662 
	C72.832367,135.820740 77.878670,142.898499 86.302994,148.278534 
	C76.520317,148.558746 66.795250,149.759613 57.400555,146.128189 
	C51.411316,143.813141 46.703094,140.096451 44.184776,133.534668 
z"/>
<path fill="#F7F8F9" opacity="1.000000" stroke="none" 
	d="
M70.174614,92.698135 
	C61.803135,93.753052 56.252560,91.254738 53.301804,85.409431 
	C50.127888,79.122063 51.386604,72.358650 56.996578,66.720222 
	C63.251465,60.433613 70.870872,57.234013 80.676468,56.861042 
	C76.393356,63.336998 77.673409,69.234261 79.904343,75.575012 
	C82.378716,82.607674 78.374763,89.010857 70.174614,92.698135 
z"/>
</svg>