<?xml version="1.0" encoding="UTF-8"?>
<svg id="Layer_2" data-name="Layer 2" xmlns="http://www.w3.org/2000/svg" width="30" height="20" viewBox="0 0 30 20">
  <path d="M26.52,18.33h0c-.44-.23-.86-.51-1.28-.83-.42-.32-.79-.69-1.12-1.11-.33-.42-.59-.88-.79-1.39-.2-.51-.29-1.08-.29-1.7V6.17c.73,.41,1.46,.82,2.04,1.27,.76,.59,1.4,1.15,1.93,1.69,.53,.54,.95,1.01,1.28,1.43,.32,.42,.55,.72,.7,.9h.13V5.65h-6.06V0c-.83,.75-1.67,1.42-2.52,1.99s-1.63,1.07-2.33,1.48c-.83,.46-1.64,.87-2.43,1.23,.33,.11,.63,.32,.9,.64,.23,.27,.44,.66,.64,1.18,.2,.52,.3,1.23,.3,2.14v4.26c0,.79,.13,1.55,.4,2.3,.27,.75,.64,1.43,1.1,2.05,.47,.61,1.02,1.14,1.65,1.57,.63,.43,1.31,.72,2.04,.88,.75,.16,1.54,.25,2.38,.27,.84,.02,1.62,0,2.35-.05,.83-.07,1.66-.17,2.49-.29-1.31-.3-2.47-.74-3.48-1.31Z" fill="#00182c"/>
  <path d="M3.38,7.1h0c.35,.28,.74,.49,1.18,.62,.44,.14,.9,.21,1.38,.21s.94-.09,1.38-.26c.47-.18,.86-.42,1.18-.72,.32-.3,.57-.64,.74-1.02,.18-.38,.26-.77,.24-1.19-.01-.42-.12-.81-.33-1.19-.32-.58-.47-1.09-.44-1.53,.03-.44,.12-.81,.26-1.11,.17-.35,.42-.65,.74-.9C9.15,0,8.53,.05,7.89,.15c-.56,.1-1.16,.27-1.82,.51-.66,.24-1.31,.59-1.95,1.04-1.84,1.33-2.37,2.79-1.58,4.38,.2,.4,.48,.74,.83,1.02Z" fill="#00182c"/>
  <path d="M4.01,10.53c-1.01,.33-1.81,.74-2.39,1.23-.58,.49-1,1.03-1.25,1.6-.25,.58-.37,1.13-.37,1.66s.11,1.12,.33,1.7c.22,.58,.62,1.11,1.2,1.6,.58,.49,1.38,.89,2.39,1.21,1.01,.31,2.29,.47,3.83,.47h3.86c-1.2-.35-2.18-.98-2.94-1.89-.76-.9-1.14-1.94-1.14-3.09s.38-2.19,1.14-3.1c.76-.9,1.74-1.53,2.94-1.89h0s-3.86,0-3.86,0c-1.49,0-2.74,.16-3.75,.49Z" fill="#00182c"/>
</svg>
