<?xml version="1.0" encoding="UTF-8"?>
<!DOCTYPE svg PUBLIC "-//W3C//DTD SVG 1.1//EN" "http://www.w3.org/Graphics/SVG/1.1/DTD/svg11.dtd">
<svg xmlns="http://www.w3.org/2000/svg" version="1.1" width="79px" height="65px" style="shape-rendering:geometricPrecision; text-rendering:geometricPrecision; image-rendering:optimizeQuality; fill-rule:evenodd; clip-rule:evenodd" xmlns:xlink="http://www.w3.org/1999/xlink">
<g><path style="opacity:1" fill="#020202" d="M -0.5,-0.5 C 25.8333,-0.5 52.1667,-0.5 78.5,-0.5C 78.5,21.1667 78.5,42.8333 78.5,64.5C 52.1667,64.5 25.8333,64.5 -0.5,64.5C -0.5,42.8333 -0.5,21.1667 -0.5,-0.5 Z"/></g>
<g><path style="opacity:1" fill="#f4f4f4" d="M 23.5,10.5 C 25.1992,10.3398 26.8659,10.5065 28.5,11C 27.6011,14.0849 27.6011,17.2516 28.5,20.5C 28.6194,24.8827 26.4527,27.216 22,27.5C 15.5614,25.6831 13.8947,21.6831 17,15.5C 18.9651,13.4497 21.1318,11.783 23.5,10.5 Z"/></g>
<g><path style="opacity:1" fill="#f6f6f6" d="M 65.5,22.5 C 65.815,26.3714 65.4816,30.0381 64.5,33.5C 62.8333,29.8333 60.1667,27.1667 56.5,25.5C 56.44,24.9569 56.1067,24.6236 55.5,24.5C 54.1834,30.6544 54.1834,36.6544 55.5,42.5C 57.1667,47.5 60.5,50.8333 65.5,52.5C 62.0381,53.4816 58.3714,53.815 54.5,53.5C 50.2462,52.4148 47.4129,49.7482 46,45.5C 44.7811,38.5789 44.1145,31.5789 44,24.5C 43.3645,23.0337 42.5312,21.7003 41.5,20.5C 45.9404,17.5271 50.1071,14.1938 54,10.5C 54.4988,14.4862 54.6655,18.4862 54.5,22.5C 58.1667,22.5 61.8333,22.5 65.5,22.5 Z"/></g>
<g><path style="opacity:1" fill="#979797" d="M 65.5,22.5 C 66.647,26.6463 66.8136,30.9796 66,35.5C 65.2828,34.9558 64.7828,34.2891 64.5,33.5C 65.4816,30.0381 65.815,26.3714 65.5,22.5 Z"/></g>
<g><path style="opacity:1" fill="#3f3f3f" d="M 56.5,25.5 C 55.5111,30.9753 55.1778,36.642 55.5,42.5C 54.1834,36.6544 54.1834,30.6544 55.5,24.5C 56.1067,24.6236 56.44,24.9569 56.5,25.5 Z"/></g>
<g><path style="opacity:1" fill="#f5f5f5" d="M 29.5,52.5 C 26.3752,53.4794 23.0419,53.8128 19.5,53.5C 12.2703,51.0416 9.77026,46.0416 12,38.5C 17.2375,32.7387 23.7375,30.9053 31.5,33C 24.2257,38.7064 23.559,45.2064 29.5,52.5 Z"/></g>
<g><path style="opacity:1" fill="#a5a5a5" d="M 29.5,52.5 C 30.2891,52.7828 30.9558,53.2828 31.5,54C 27.3112,54.8119 23.3112,54.6453 19.5,53.5C 23.0419,53.8128 26.3752,53.4794 29.5,52.5 Z"/></g>
<g><path style="opacity:1" fill="#959595" d="M 65.5,52.5 C 66.0431,52.56 66.3764,52.8933 66.5,53.5C 62.3507,54.8095 58.3507,54.8095 54.5,53.5C 58.3714,53.815 62.0381,53.4816 65.5,52.5 Z"/></g>
</svg>
