<svg version="1.1" id="Layer_1" xmlns="http://www.w3.org/2000/svg" xmlns:xlink="http://www.w3.org/1999/xlink" x="0px" y="0px"
	 width="100%" viewBox="0 0 600 600" enable-background="new 0 0 600 600" xml:space="preserve">
<path fill="#010101" opacity="1.000000" stroke="none" 
	d="
M281.000000,601.000000 
	C187.333328,601.000000 94.166664,601.000000 1.000000,601.000000 
	C1.000000,401.000000 1.000000,201.000000 1.000000,1.000000 
	C201.000000,1.000000 401.000000,1.000000 601.000000,1.000000 
	C601.000000,201.000000 601.000000,401.000000 601.000000,601.000000 
	C494.500000,601.000000 388.000000,601.000000 281.000000,601.000000 
M376.180695,436.553558 
	C377.189178,437.294708 378.197662,438.035858 379.683624,439.134094 
	C380.428955,439.790039 381.174286,440.445953 381.973969,441.775970 
	C385.709229,444.117035 389.444489,446.458130 393.552826,448.941071 
	C393.552826,448.941071 393.907806,449.123657 394.075348,449.785797 
	C396.455566,450.773010 398.835815,451.760254 401.745941,452.931824 
	C402.087738,453.083374 402.429565,453.234894 403.009857,454.037842 
	C405.505066,454.906128 407.956085,455.940887 410.502472,456.616180 
	C429.726410,461.713898 449.332825,461.304871 468.931610,460.293823 
	C473.984894,460.033142 478.979736,458.638794 484.555511,457.659454 
	C484.928619,457.612396 485.301697,457.565338 486.524628,457.862457 
	C491.872650,457.204193 497.220703,456.545929 502.568726,455.887634 
	C502.573059,455.205322 502.577362,454.522980 502.581696,453.840668 
	C497.344025,451.964050 491.972260,450.390381 486.897980,448.144592 
	C477.741608,444.092072 468.763123,439.637512 459.375732,435.152222 
	C459.375732,435.152222 459.063110,434.920471 458.979187,434.246399 
	C457.602875,433.550293 456.226593,432.854156 454.377502,431.888489 
	C453.943024,431.560944 453.508545,431.233398 453.001099,430.238190 
	C450.234619,428.276733 447.468140,426.315247 444.390808,424.119110 
	C444.390808,424.119110 444.125916,423.833557 444.079559,423.159027 
	C441.072937,420.422821 438.066315,417.686615 434.640961,414.524506 
	C434.000214,413.763733 433.359436,413.002960 432.841125,411.579956 
	C431.915283,410.702728 430.989410,409.825500 429.720612,408.526093 
	C429.408173,408.081726 429.095734,407.637360 428.899780,406.497467 
	C427.664734,404.951477 426.429688,403.405457 424.975037,401.531830 
	C424.975037,401.531830 424.797150,401.179810 424.870270,400.446716 
	C423.599426,398.282654 422.328552,396.118591 420.876038,393.597931 
	C420.876038,393.597931 420.728302,393.226044 420.848541,392.463989 
	C419.337463,388.910309 417.826385,385.356628 416.114349,381.180511 
	C415.951721,380.547058 415.789093,379.913635 415.866669,378.432922 
	C415.031128,373.884705 414.195587,369.336487 413.294128,364.191254 
	C413.283478,363.791107 413.272797,363.390991 413.785278,362.353302 
	C413.827881,341.329742 413.877747,320.306152 413.883881,299.282593 
	C413.884094,298.521515 413.454803,297.760315 413.202728,296.063202 
	C413.214050,290.039612 413.225372,284.015991 413.770111,277.361359 
	C413.770111,268.575165 413.770111,259.789001 413.770111,250.259583 
	C417.206024,251.729904 419.676636,252.787140 422.627258,254.102509 
	C423.062592,254.429703 423.497925,254.756897 424.021240,255.749619 
	C427.094940,257.740875 430.168671,259.732117 433.700775,262.015045 
	C434.119995,262.360229 434.539215,262.705414 435.033234,263.718140 
	C436.099976,264.391846 437.166687,265.065552 438.674042,266.060486 
	C439.072571,266.432281 439.471100,266.804108 439.909851,267.846802 
	C441.292969,268.877441 442.676056,269.908081 444.000000,271.000000 
	C444.000000,271.000000 444.061035,270.940338 444.094574,271.619049 
	C445.779785,273.020569 447.464996,274.422058 449.051880,275.960999 
	C449.051880,275.960999 449.178833,275.849487 449.195801,276.520020 
	C450.192017,277.282623 451.188263,278.045197 452.615601,279.179260 
	C453.138641,279.728333 453.661652,280.277435 454.166534,281.496399 
	C455.154633,282.282104 456.142731,283.067780 457.015564,283.977356 
	C457.015564,283.977356 457.148346,283.872559 457.145813,284.551971 
	C459.048645,286.405304 460.951508,288.258606 463.125946,290.395264 
	C463.125946,290.395264 463.349060,290.718201 463.250397,291.403229 
	C467.752441,296.658966 472.254456,301.914734 477.011780,307.469299 
	C477.011780,307.469299 477.222595,307.800964 477.138367,308.510101 
	C480.729523,314.096985 484.216797,319.755371 487.980164,325.223724 
	C489.003540,326.710693 490.859375,327.624786 492.333160,328.801819 
	C492.887909,327.055664 493.921844,325.309784 493.922913,323.563232 
	C493.933136,307.089874 493.736115,290.616547 493.664124,274.142914 
	C493.622681,264.658295 493.798523,255.171661 493.653900,245.689316 
	C493.619995,243.464661 494.684540,239.790405 489.095184,240.539948 
	C485.726959,240.606064 482.358765,240.672165 478.364563,240.197540 
	C471.243591,240.376221 464.122620,240.554916 456.331146,240.754379 
	C455.884125,240.745178 455.437103,240.735977 454.420685,240.194489 
	C451.614197,240.368408 448.807678,240.542343 445.248260,240.737579 
	C444.495087,240.730896 443.741943,240.724197 442.365723,240.172104 
	C434.604279,240.104187 426.836945,239.830750 419.083710,240.051239 
	C414.932281,240.169296 413.608215,238.650803 413.683777,234.637665 
	C413.794403,228.763168 413.411163,222.879349 413.219452,216.062775 
	C413.234650,202.705414 413.249817,189.348053 413.785980,175.497437 
	C413.610229,173.665024 413.434509,171.832596 413.234955,169.083740 
	C413.262543,165.717560 413.290161,162.351379 413.828217,158.563400 
	C413.361359,157.484909 412.894501,156.406418 412.427643,155.327911 
	C411.557617,156.133698 410.687592,156.939468 409.353271,158.227783 
	C405.284332,162.203110 401.215363,166.178452 396.477417,170.118774 
	C395.650757,171.078201 394.824097,172.037628 393.564636,173.445374 
	C392.458038,174.392502 391.351471,175.339630 389.568207,176.200790 
	C388.015717,177.762527 386.463257,179.324249 384.615417,181.147583 
	C384.615417,181.147583 384.289490,181.369934 383.602386,181.249130 
	C380.702576,183.791077 377.802734,186.333008 374.613861,189.141693 
	C374.613861,189.141693 374.289154,189.363586 373.627747,189.228897 
	C372.743774,190.143005 371.859802,191.057129 370.547638,192.306732 
	C370.107178,192.625275 369.666687,192.943817 368.580444,193.134048 
	C368.036224,193.734390 367.492004,194.334717 366.519989,195.271408 
	C366.075165,195.583130 365.630341,195.894867 364.489258,196.158295 
	C362.625183,197.727112 360.761108,199.295929 358.580536,201.093781 
	C358.580536,201.093781 358.240662,201.286423 357.546082,201.219177 
	C355.658081,202.759933 353.770050,204.300674 351.564392,206.071213 
	C351.564392,206.071213 351.216705,206.252380 350.531891,206.129425 
	C349.353210,207.084610 348.174500,208.039795 346.554321,209.316757 
	C346.092529,209.606689 345.630707,209.896606 344.482086,210.090530 
	C343.300049,211.033112 342.117981,211.975693 340.485748,213.228546 
	C340.028564,213.525604 339.571411,213.822662 338.383942,214.070496 
	C333.552795,216.997314 328.721649,219.924118 323.541443,223.044327 
	C323.541443,223.044327 323.170410,223.191223 322.472595,223.053391 
	C321.083893,223.910233 319.695221,224.767059 317.360687,226.207489 
	C320.624725,228.113388 322.912445,229.449203 325.585052,231.076599 
	C325.829254,231.289932 326.039612,231.532608 326.196808,232.470932 
	C327.395874,233.696579 328.594940,234.922226 330.020111,236.472214 
	C330.020111,236.472214 330.190552,236.828979 330.113220,237.563171 
	C336.807617,250.109772 340.719360,263.371216 340.635559,277.709595 
	C340.605408,282.869904 340.944794,288.031372 340.978577,293.193207 
	C341.128967,316.188080 341.202911,339.183563 341.404022,362.177917 
	C341.418732,363.856323 342.224976,365.527863 342.744720,367.900391 
	C342.794250,368.601196 342.843781,369.301971 342.482788,370.530182 
	C343.875031,376.478577 344.912781,382.540558 346.770294,388.339935 
	C348.291992,393.090851 350.789886,397.529053 353.091980,402.615479 
	C353.230255,402.963654 353.368500,403.311798 353.310974,404.378998 
	C357.187225,410.602234 361.063477,416.825470 365.189758,423.357788 
	C365.189758,423.357788 365.405396,423.691803 365.247406,424.352722 
	C366.447205,425.607483 367.647003,426.862244 369.271912,428.574158 
	C370.233582,429.666229 371.195282,430.758301 372.141296,432.528564 
	C373.465973,433.642395 374.790680,434.756226 376.016815,435.993073 
	C376.016815,435.993073 376.130981,435.884094 376.180695,436.553558 
M123.558266,343.039642 
	C99.581665,374.853882 106.222801,426.640381 148.711456,447.183929 
	C166.198303,455.638947 184.587387,459.405334 203.771912,459.849731 
	C217.930786,460.177765 232.100937,460.020721 246.266098,460.073395 
	C249.841873,460.086670 253.417740,460.075409 256.993561,460.075409 
	C257.073486,459.654510 257.153412,459.233612 257.233337,458.812744 
	C226.590607,443.159454 208.869598,419.000580 208.900360,383.956635 
	C208.931137,348.895264 226.342514,324.399261 257.195068,308.396820 
	C230.432358,308.848114 203.807556,305.490631 177.677139,311.130951 
	C156.579697,315.684937 137.674042,324.840302 123.558266,343.039642 
M226.336060,198.787598 
	C222.017532,182.916977 225.014008,168.491135 236.215820,154.498672 
	C232.686630,154.498672 230.451248,154.367813 228.235321,154.520035 
	C214.448074,155.467178 201.349579,159.190979 188.857620,164.930923 
	C171.592072,172.864258 156.754807,183.880463 146.458649,200.200317 
	C134.384827,219.337860 136.687393,243.412201 151.986588,259.799286 
	C166.924454,275.799316 190.787216,279.331940 210.627014,268.480347 
	C228.878036,258.497803 238.569077,235.262131 232.535370,215.447189 
	C230.891205,210.047668 228.591705,204.847702 226.336060,198.787598 
z"/>
<path fill="#FCFCFC" opacity="1.000000" stroke="none" 
	d="
M424.797150,401.179810 
	C424.797150,401.179810 424.975037,401.531830 425.057495,402.038208 
	C426.354370,404.094055 427.568817,405.643524 428.783264,407.193024 
	C429.095734,407.637360 429.408173,408.081726 429.867981,409.068054 
	C430.916473,410.487396 431.817566,411.364777 432.718658,412.242188 
	C433.359436,413.002960 434.000214,413.763733 434.850250,415.080383 
	C438.081665,418.368683 441.103790,421.101135 444.125916,423.833557 
	C444.125916,423.833557 444.390808,424.119110 444.577271,424.573456 
	C447.533844,426.987152 450.303955,428.946503 453.074066,430.905853 
	C453.508545,431.233398 453.943024,431.560944 454.668396,432.356201 
	C456.327240,433.522766 457.695160,434.221619 459.063110,434.920471 
	C459.063110,434.920471 459.375732,435.152222 459.623749,435.577515 
	C472.205933,442.235138 484.540100,448.467499 496.796112,454.660339 
	C493.209595,455.582001 489.442200,456.550140 485.674805,457.518311 
	C485.301697,457.565338 484.928619,457.612396 483.969177,457.526062 
	C456.298615,460.358337 429.325958,461.078583 402.771362,453.386414 
	C402.429565,453.234894 402.087738,453.083374 401.370178,452.517151 
	C398.632172,451.109558 396.269989,450.116608 393.907806,449.123657 
	C393.907806,449.123657 393.552826,448.941071 393.270630,448.549805 
	C389.298828,445.806305 385.609222,443.454102 381.919617,441.101929 
	C381.174286,440.445953 380.428955,439.790039 379.421631,438.628265 
	C378.150085,437.376343 377.140533,436.630219 376.130981,435.884094 
	C376.130981,435.884094 376.016815,435.993073 376.036621,435.601929 
	C374.756592,434.090637 373.456757,432.970490 372.156952,431.850372 
	C371.195282,430.758301 370.233582,429.666229 369.083130,428.016357 
	C367.731323,426.202972 366.568359,424.947388 365.405396,423.691803 
	C365.405396,423.691803 365.189758,423.357788 365.091553,422.847168 
	C361.164490,416.111023 357.335632,409.885498 353.506775,403.659973 
	C353.368500,403.311798 353.230255,402.963654 353.024750,401.981689 
	C349.602753,390.899506 346.248016,380.451141 342.893280,370.002777 
	C342.843781,369.301971 342.794250,368.601196 342.845001,367.088135 
	C342.770081,339.690369 342.647430,313.104309 342.395386,286.519501 
	C342.285095,274.882843 342.170746,263.169067 337.740570,252.157272 
	C335.620758,246.888168 332.731384,241.928680 330.190552,236.828979 
	C330.190552,236.828979 330.020111,236.472214 329.915527,235.975739 
	C328.612701,234.254395 327.414398,233.029510 326.216125,231.804642 
	C326.039612,231.532608 325.829254,231.289932 325.359497,230.592255 
	C323.739716,228.864532 322.345490,227.621155 320.853424,226.290543 
	C321.715546,225.137314 322.442993,224.164261 323.170410,223.191223 
	C323.170410,223.191223 323.541443,223.044327 324.079956,222.979279 
	C329.450378,219.982727 334.282318,217.051224 339.114258,214.119720 
	C339.571411,213.822662 340.028564,213.525604 341.051483,213.115417 
	C342.801117,212.063705 343.984985,211.125107 345.168884,210.186523 
	C345.630707,209.896606 346.092529,209.606689 347.114380,209.184448 
	C348.855194,208.118896 350.035950,207.185638 351.216705,206.252380 
	C351.216705,206.252380 351.564392,206.071213 352.068726,205.980942 
	C354.462280,204.355927 356.351471,202.821182 358.240662,201.286423 
	C358.240662,201.286423 358.580536,201.093781 359.084900,200.997131 
	C361.454651,199.335846 363.320099,197.771225 365.185516,196.206589 
	C365.630341,195.894867 366.075165,195.583130 367.054321,195.145233 
	C368.134552,194.433487 368.680389,193.847916 369.226227,193.262360 
	C369.666687,192.943817 370.107178,192.625275 371.086914,192.150421 
	C372.513855,191.117264 373.401520,190.240433 374.289154,189.363586 
	C374.289154,189.363586 374.613861,189.141693 375.105957,189.023590 
	C378.495178,186.393631 381.392334,183.881775 384.289490,181.369934 
	C384.289490,181.369934 384.615417,181.147583 385.100983,181.043030 
	C387.139313,179.387894 388.692108,177.837326 390.244904,176.286758 
	C391.351471,175.339630 392.458038,174.392502 394.111847,173.222458 
	C395.488159,172.050949 396.317261,171.102356 397.146362,170.153778 
	C401.215363,166.178452 405.284332,162.203110 409.979156,158.021423 
	C411.509277,158.205093 412.413513,158.595139 413.317749,158.985199 
	C413.290161,162.351379 413.262543,165.717560 413.018982,169.809738 
	C412.957001,172.354050 413.110992,174.172379 413.264984,175.990692 
	C413.249817,189.348053 413.234650,202.705414 412.996155,216.864227 
	C412.677277,224.115845 412.401184,230.572189 412.621643,237.011520 
	C412.672394,238.494675 414.411011,241.165405 415.398163,241.177216 
	C424.591888,241.287079 433.791138,240.935425 442.988770,240.717514 
	C443.741943,240.724197 444.495087,240.730896 445.921509,240.973145 
	C449.393188,241.048050 452.191650,240.887405 454.990082,240.726776 
	C455.437103,240.735977 455.884125,240.745178 456.982300,241.001556 
	C464.752472,241.078568 471.871521,240.908432 478.990540,240.738281 
	C482.358765,240.672165 485.726959,240.606064 489.811401,240.909271 
	C491.137848,242.880386 492.269165,244.478577 492.280334,246.084564 
	C492.456055,271.325562 492.497894,296.567566 492.525726,321.809387 
	C492.527344,323.279999 492.146790,324.750977 491.944122,326.221802 
	C489.638000,324.977020 488.633453,323.532227 487.601776,322.106995 
	C484.147308,317.334534 480.683075,312.569092 477.222595,307.800964 
	C477.222595,307.800964 477.011780,307.469299 476.911865,306.972534 
	C472.324341,301.223236 467.836700,295.970734 463.349060,290.718201 
	C463.349060,290.718201 463.125946,290.395264 462.989441,289.914673 
	C460.951385,287.580261 459.049866,285.726410 457.148346,283.872559 
	C457.148346,283.872559 457.015564,283.977356 457.075806,283.583862 
	C456.152222,282.402405 455.168457,281.614471 454.184662,280.826538 
	C453.661652,280.277435 453.138641,279.728333 452.395721,278.662720 
	C451.176849,277.380646 450.177826,276.615051 449.178833,275.849487 
	C449.178833,275.849487 449.051880,275.960999 449.083069,275.556091 
	C447.429871,273.747589 445.745453,272.343964 444.061035,270.940338 
	C444.061035,270.940338 444.000000,271.000000 443.999023,270.636536 
	C442.621887,269.240692 441.245728,268.208313 439.869598,267.175934 
	C439.471100,266.804108 439.072571,266.432281 438.423492,265.568085 
	C437.101440,264.400635 436.029968,263.725586 434.958466,263.050568 
	C434.539215,262.705414 434.119995,262.360229 433.423584,261.534607 
	C430.075317,259.064148 427.004303,257.074127 423.933258,255.084076 
	C423.497925,254.756897 423.062592,254.429703 422.322876,253.642181 
	C420.105774,251.865448 418.228821,250.492844 416.271118,249.247192 
	C413.949463,247.769928 412.300140,248.289154 412.365173,251.217407 
	C412.563507,260.144470 412.933502,269.067688 413.236694,277.992401 
	C413.225372,284.015991 413.214050,290.039612 412.986511,296.867065 
	C412.718872,318.675140 412.660553,339.679321 412.643494,360.683533 
	C412.642853,361.452484 413.046753,362.221741 413.262146,362.990845 
	C413.272797,363.390991 413.283478,363.791107 413.154358,364.927338 
	C413.885223,370.202332 414.755859,374.741272 415.626465,379.280182 
	C415.789093,379.913635 415.951721,380.547058 416.103821,381.873260 
	C417.638306,386.119354 419.183289,389.672699 420.728302,393.226044 
	C420.728302,393.226044 420.876038,393.597931 420.904694,394.141327 
	C422.221283,396.849762 423.509216,399.014801 424.797150,401.179810 
z"/>
<path fill="#FCFCFC" opacity="1.000000" stroke="none" 
	d="
M123.744568,342.735260 
	C137.674042,324.840302 156.579697,315.684937 177.677139,311.130951 
	C203.807556,305.490631 230.432358,308.848114 257.195068,308.396820 
	C226.342514,324.399261 208.931137,348.895264 208.900360,383.956635 
	C208.869598,419.000580 226.590607,443.159454 257.233337,458.812744 
	C257.153412,459.233612 257.073486,459.654510 256.993561,460.075409 
	C253.417740,460.075409 249.841873,460.086670 246.266098,460.073395 
	C232.100937,460.020721 217.930786,460.177765 203.771912,459.849731 
	C184.587387,459.405334 166.198303,455.638947 148.711456,447.183929 
	C106.222801,426.640381 99.581665,374.853882 123.744568,342.735260 
z"/>
<path fill="#FCFCFC" opacity="1.000000" stroke="none" 
	d="
M226.464508,199.171875 
	C228.591705,204.847702 230.891205,210.047668 232.535370,215.447189 
	C238.569077,235.262131 228.878036,258.497803 210.627014,268.480347 
	C190.787216,279.331940 166.924454,275.799316 151.986588,259.799286 
	C136.687393,243.412201 134.384827,219.337860 146.458649,200.200317 
	C156.754807,183.880463 171.592072,172.864258 188.857620,164.930923 
	C201.349579,159.190979 214.448074,155.467178 228.235321,154.520035 
	C230.451248,154.367813 232.686630,154.498672 236.215820,154.498672 
	C225.014008,168.491135 222.017532,182.916977 226.464508,199.171875 
z"/>
<path fill="#737373" opacity="1.000000" stroke="none" 
	d="
M330.151886,237.196075 
	C332.731384,241.928680 335.620758,246.888168 337.740570,252.157272 
	C342.170746,263.169067 342.285095,274.882843 342.395386,286.519501 
	C342.647430,313.104309 342.770081,339.690369 342.804260,366.739258 
	C342.224976,365.527863 341.418732,363.856323 341.404022,362.177917 
	C341.202911,339.183563 341.128967,316.188080 340.978577,293.193207 
	C340.944794,288.031372 340.605408,282.869904 340.635559,277.709595 
	C340.719360,263.371216 336.807617,250.109772 330.151886,237.196075 
z"/>
<path fill="#737373" opacity="1.000000" stroke="none" 
	d="
M477.180481,308.155518 
	C480.683075,312.569092 484.147308,317.334534 487.601776,322.106995 
	C488.633453,323.532227 489.638000,324.977020 491.944122,326.221802 
	C492.146790,324.750977 492.527344,323.279999 492.525726,321.809387 
	C492.497894,296.567566 492.456055,271.325562 492.280334,246.084564 
	C492.269165,244.478577 491.137848,242.880386 490.269409,240.945587 
	C494.684540,239.790405 493.619995,243.464661 493.653900,245.689316 
	C493.798523,255.171661 493.622681,264.658295 493.664124,274.142914 
	C493.736115,290.616547 493.933136,307.089874 493.922913,323.563232 
	C493.921844,325.309784 492.887909,327.055664 492.333130,328.801819 
	C490.859375,327.624786 489.003540,326.710693 487.980164,325.223724 
	C484.216797,319.755371 480.729523,314.096985 477.180481,308.155518 
z"/>
<path fill="#737373" opacity="1.000000" stroke="none" 
	d="
M402.890625,453.712128 
	C429.325958,461.078583 456.298615,460.358337 483.692139,457.578918 
	C478.979736,458.638794 473.984894,460.033142 468.931610,460.293823 
	C449.332825,461.304871 429.726410,461.713898 410.502472,456.616180 
	C407.956085,455.940887 405.505066,454.906128 402.890625,453.712128 
z"/>
<path fill="#737373" opacity="1.000000" stroke="none" 
	d="
M413.523682,362.672058 
	C413.046753,362.221741 412.642853,361.452484 412.643494,360.683533 
	C412.660553,339.679321 412.718872,318.675140 412.997986,297.335052 
	C413.454803,297.760315 413.884094,298.521515 413.883881,299.282593 
	C413.877747,320.306152 413.827881,341.329742 413.523682,362.672058 
z"/>
<path fill="#737373" opacity="1.000000" stroke="none" 
	d="
M486.099731,457.690369 
	C489.442200,456.550140 493.209595,455.582001 496.796112,454.660339 
	C484.540100,448.467499 472.205933,442.235138 459.791077,435.676819 
	C468.763123,439.637512 477.741608,444.092072 486.897980,448.144592 
	C491.972260,450.390381 497.344025,451.964050 502.581696,453.840668 
	C502.577362,454.522980 502.573059,455.205322 502.568726,455.887634 
	C497.220703,456.545929 491.872650,457.204193 486.099731,457.690369 
z"/>
<path fill="#737373" opacity="1.000000" stroke="none" 
	d="
M442.677246,240.444809 
	C433.791138,240.935425 424.591888,241.287079 415.398163,241.177216 
	C414.411011,241.165405 412.672394,238.494675 412.621643,237.011520 
	C412.401184,230.572189 412.677277,224.115845 413.005615,217.332611 
	C413.411163,222.879349 413.794403,228.763168 413.683777,234.637665 
	C413.608215,238.650803 414.932281,240.169296 419.083710,240.051239 
	C426.836945,239.830750 434.604279,240.104187 442.677246,240.444809 
z"/>
<path fill="#737373" opacity="1.000000" stroke="none" 
	d="
M413.503418,277.676880 
	C412.933502,269.067688 412.563507,260.144470 412.365173,251.217407 
	C412.300140,248.289154 413.949463,247.769928 416.271118,249.247192 
	C418.228821,250.492844 420.105774,251.865448 422.082825,253.513123 
	C419.676636,252.787140 417.206024,251.729904 413.770111,250.259583 
	C413.770111,259.789001 413.770111,268.575165 413.503418,277.676880 
z"/>
<path fill="#737373" opacity="1.000000" stroke="none" 
	d="
M342.688049,370.266479 
	C346.248016,380.451141 349.602753,390.899506 352.906311,401.726868 
	C350.789886,397.529053 348.291992,393.090851 346.770294,388.339935 
	C344.912781,382.540558 343.875031,376.478577 342.688049,370.266479 
z"/>
<path fill="#737373" opacity="1.000000" stroke="none" 
	d="
M478.677551,240.467911 
	C471.871521,240.908432 464.752472,241.078568 457.317566,240.991150 
	C464.122620,240.554916 471.243591,240.376221 478.677551,240.467911 
z"/>
<path fill="#737373" opacity="1.000000" stroke="none" 
	d="
M463.299744,291.060730 
	C467.836700,295.970734 472.324341,301.223236 476.784241,306.823120 
	C472.254456,301.914734 467.752441,296.658966 463.299744,291.060730 
z"/>
<path fill="#737373" opacity="1.000000" stroke="none" 
	d="
M353.408875,404.019470 
	C357.335632,409.885498 361.164490,416.111023 364.966553,422.692627 
	C361.063477,416.825470 357.187225,410.602234 353.408875,404.019470 
z"/>
<path fill="#737373" opacity="1.000000" stroke="none" 
	d="
M338.749084,214.095123 
	C334.282318,217.051224 329.450378,219.982727 324.254456,222.882568 
	C328.721649,219.924118 333.552795,216.997314 338.749084,214.095123 
z"/>
<path fill="#737373" opacity="1.000000" stroke="none" 
	d="
M415.746582,378.856567 
	C414.755859,374.741272 413.885223,370.202332 413.187317,365.225830 
	C414.195587,369.336487 415.031128,373.884705 415.746582,378.856567 
z"/>
<path fill="#737373" opacity="1.000000" stroke="none" 
	d="
M381.946777,441.438965 
	C385.609222,443.454102 389.298828,445.806305 393.084106,448.478851 
	C389.444489,446.458130 385.709229,444.117035 381.946777,441.438965 
z"/>
<path fill="#737373" opacity="1.000000" stroke="none" 
	d="
M322.821503,223.122299 
	C322.442993,224.164261 321.715546,225.137314 320.853424,226.290543 
	C322.345490,227.621155 323.739716,228.864532 325.167053,230.446457 
	C322.912445,229.449203 320.624725,228.113388 317.360687,226.207489 
	C319.695221,224.767059 321.083893,223.910233 322.821503,223.122299 
z"/>
<path fill="#737373" opacity="1.000000" stroke="none" 
	d="
M444.102722,423.496277 
	C441.103790,421.101135 438.081665,418.368683 435.059631,415.293335 
	C438.066315,417.686615 441.072937,420.422821 444.102722,423.496277 
z"/>
<path fill="#737373" opacity="1.000000" stroke="none" 
	d="
M383.945923,181.309540 
	C381.392334,183.881775 378.495178,186.393631 375.250458,188.890213 
	C377.802734,186.333008 380.702576,183.791077 383.945923,181.309540 
z"/>
<path fill="#737373" opacity="1.000000" stroke="none" 
	d="
M420.788422,392.845032 
	C419.183289,389.672699 417.638306,386.119354 416.204285,382.184479 
	C417.826385,385.356628 419.337463,388.910309 420.788422,392.845032 
z"/>
<path fill="#737373" opacity="1.000000" stroke="none" 
	d="
M423.977234,255.416840 
	C427.004303,257.074127 430.075317,259.064148 433.194366,261.388794 
	C430.168671,259.732117 427.094940,257.740875 423.977234,255.416840 
z"/>
<path fill="#737373" opacity="1.000000" stroke="none" 
	d="
M453.037598,430.572021 
	C450.303955,428.946503 447.533844,426.987152 444.732697,424.690796 
	C447.468140,426.315247 450.234619,428.276733 453.037598,430.572021 
z"/>
<path fill="#737373" opacity="1.000000" stroke="none" 
	d="
M454.705383,240.460632 
	C452.191650,240.887405 449.393188,241.048050 446.297974,240.962494 
	C448.807678,240.542343 451.614197,240.368408 454.705383,240.460632 
z"/>
<path fill="#737373" opacity="1.000000" stroke="none" 
	d="
M457.147095,284.212280 
	C459.049866,285.726410 460.951385,287.580261 462.853638,289.773010 
	C460.951508,288.258606 459.048645,286.405304 457.147095,284.212280 
z"/>
<path fill="#737373" opacity="1.000000" stroke="none" 
	d="
M424.833710,400.813263 
	C423.509216,399.014801 422.221283,396.849762 420.995544,394.319641 
	C422.328552,396.118591 423.599426,398.282654 424.833710,400.813263 
z"/>
<path fill="#737373" opacity="1.000000" stroke="none" 
	d="
M357.893372,201.252808 
	C356.351471,202.821182 354.462280,204.355927 352.227539,205.866043 
	C353.770050,204.300674 355.658081,202.759933 357.893372,201.252808 
z"/>
<path fill="#737373" opacity="1.000000" stroke="none" 
	d="
M364.837402,196.182434 
	C363.320099,197.771225 361.454651,199.335846 359.243134,200.882599 
	C360.761108,199.295929 362.625183,197.727112 364.837402,196.182434 
z"/>
<path fill="#737373" opacity="1.000000" stroke="none" 
	d="
M444.077820,271.279694 
	C445.745453,272.343964 447.429871,273.747589 449.132233,275.487396 
	C447.464996,274.422058 445.779785,273.020569 444.077820,271.279694 
z"/>
<path fill="#737373" opacity="1.000000" stroke="none" 
	d="
M393.991577,449.454712 
	C396.269989,450.116608 398.632172,451.109558 401.105225,452.424988 
	C398.835815,451.760254 396.455566,450.773010 393.991577,449.454712 
z"/>
<path fill="#737373" opacity="1.000000" stroke="none" 
	d="
M389.906555,176.243774 
	C388.692108,177.837326 387.139313,179.387894 385.248657,180.912231 
	C386.463257,179.324249 388.015717,177.762527 389.906555,176.243774 
z"/>
<path fill="#737373" opacity="1.000000" stroke="none" 
	d="
M413.572998,158.774292 
	C412.413513,158.595139 411.509277,158.205093 410.211304,157.780151 
	C410.687592,156.939468 411.557617,156.133698 412.427643,155.327911 
	C412.894501,156.406418 413.361359,157.484909 413.572998,158.774292 
z"/>
<path fill="#737373" opacity="1.000000" stroke="none" 
	d="
M413.525482,175.744064 
	C413.110992,174.172379 412.957001,172.354050 413.030884,170.267960 
	C413.434509,171.832596 413.610229,173.665024 413.525482,175.744064 
z"/>
<path fill="#737373" opacity="1.000000" stroke="none" 
	d="
M428.841522,406.845245 
	C427.568817,405.643524 426.354370,404.094055 425.167297,402.201996 
	C426.429688,403.405457 427.664734,404.951477 428.841522,406.845245 
z"/>
<path fill="#737373" opacity="1.000000" stroke="none" 
	d="
M365.326416,424.022278 
	C366.568359,424.947388 367.731323,426.202972 368.870544,427.787750 
	C367.647003,426.862244 366.447205,425.607483 365.326416,424.022278 
z"/>
<path fill="#737373" opacity="1.000000" stroke="none" 
	d="
M372.149109,432.189453 
	C373.456757,432.970490 374.756592,434.090637 376.085876,435.540405 
	C374.790680,434.756226 373.465973,433.642395 372.149109,432.189453 
z"/>
<path fill="#737373" opacity="1.000000" stroke="none" 
	d="
M439.889709,267.511353 
	C441.245728,268.208313 442.621887,269.240692 444.028564,270.605896 
	C442.676056,269.908081 441.292969,268.877441 439.889709,267.511353 
z"/>
<path fill="#737373" opacity="1.000000" stroke="none" 
	d="
M326.206482,232.137787 
	C327.414398,233.029510 328.612701,234.254395 329.802490,235.813568 
	C328.594940,234.922226 327.395874,233.696579 326.206482,232.137787 
z"/>
<path fill="#737373" opacity="1.000000" stroke="none" 
	d="
M459.021149,434.583435 
	C457.695160,434.221619 456.327240,433.522766 454.904785,432.490967 
	C456.226593,432.854156 457.602875,433.550293 459.021149,434.583435 
z"/>
<path fill="#737373" opacity="1.000000" stroke="none" 
	d="
M344.825500,210.138519 
	C343.984985,211.125107 342.801117,212.063705 341.276581,212.960297 
	C342.117981,211.975693 343.300049,211.033112 344.825500,210.138519 
z"/>
<path fill="#737373" opacity="1.000000" stroke="none" 
	d="
M350.874298,206.190918 
	C350.035950,207.185638 348.855194,208.118896 347.335114,209.023560 
	C348.174500,208.039795 349.353210,207.084610 350.874298,206.190918 
z"/>
<path fill="#737373" opacity="1.000000" stroke="none" 
	d="
M376.155823,436.218811 
	C377.140533,436.630219 378.150085,437.376343 379.182922,438.449707 
	C378.197662,438.035858 377.189178,437.294708 376.155823,436.218811 
z"/>
<path fill="#737373" opacity="1.000000" stroke="none" 
	d="
M454.175598,281.161469 
	C455.168457,281.614471 456.152222,282.402405 457.133423,283.521912 
	C456.142731,283.067780 455.154633,282.282104 454.175598,281.161469 
z"/>
<path fill="#737373" opacity="1.000000" stroke="none" 
	d="
M432.779907,411.911072 
	C431.817566,411.364777 430.916473,410.487396 430.039429,409.279175 
	C430.989410,409.825500 431.915283,410.702728 432.779907,411.911072 
z"/>
<path fill="#737373" opacity="1.000000" stroke="none" 
	d="
M396.811890,170.136261 
	C396.317261,171.102356 395.488159,172.050949 394.328247,172.998291 
	C394.824097,172.037628 395.650757,171.078201 396.811890,170.136261 
z"/>
<path fill="#737373" opacity="1.000000" stroke="none" 
	d="
M373.958435,189.296249 
	C373.401520,190.240433 372.513855,191.117264 371.301025,191.982666 
	C371.859802,191.057129 372.743774,190.143005 373.958435,189.296249 
z"/>
<path fill="#737373" opacity="1.000000" stroke="none" 
	d="
M449.187317,276.184753 
	C450.177826,276.615051 451.176849,277.380646 452.180176,278.476990 
	C451.188263,278.045197 450.192017,277.282623 449.187317,276.184753 
z"/>
<path fill="#737373" opacity="1.000000" stroke="none" 
	d="
M434.995850,263.384338 
	C436.029968,263.725586 437.101440,264.400635 438.203186,265.407471 
	C437.166687,265.065552 436.099976,264.391846 434.995850,263.384338 
z"/>
<path fill="#737373" opacity="1.000000" stroke="none" 
	d="
M368.903320,193.198212 
	C368.680389,193.847916 368.134552,194.433487 367.268219,194.977051 
	C367.492004,194.334717 368.036224,193.734390 368.903320,193.198212 
z"/>
</svg>