<?xml version="1.0" encoding="UTF-8"?>
<svg id="Layer_1" data-name="Layer 1" xmlns="http://www.w3.org/2000/svg" viewBox="0 0 3000 3000">
  <defs>
    <style>
      .cls-1 {
        fill: #010101;
      }

      .cls-2 {
        fill: #fff;
      }
    </style>
  </defs>
  <rect class="cls-1" width="3000" height="3000"/>
  <path class="cls-2" d="M1322.43,1954.52c-.4,.44,90.54-1.5,90.54-1.5-87.65-222.81-176.14-444.97-266.11-673.68-15.66,30.41-26.73,51.93-37.81,73.44-2.71-1.04-5.42-2.08-8.14-3.12,39.16-97.91,78.31-195.83,123.44-308.67,128.87,308.14,246.48,612.1,369.52,912.02,0,0,72.55,.97,71.95,1.72-.11,1.81-.22,3.62-.32,5.43h-342.83c-.08-1.89-.16-3.77-.24-5.66Z"/>
  <path class="cls-2" d="M1204.56,1588.35c-59.93,17.23-76.8,61.71-93.27,106.06-18.6,50.07-32.55,102.21-54.97,150.46-49.07,105.59-141.39,146.26-269.25,116.8,64.52-20.73,81.9-70.67,100.14-120.41,18.36-50.07,32.97-102.34,57.96-148.97,52.58-98.14,136.08-131.25,259.39-103.93Z"/>
  <path class="cls-2" d="M1764.88,1042.98h175.05c0,24.93,0,46.88,0,68.82,0,173.55-3.75,347.22,1.27,520.63,3.73,129-24.17,237.73-143.79,313.22h228.34c-.03,3.78-.05,7.57-.08,11.35h-339.67c73.24-24,77.56-84.43,77.76-145.92,.76-231.4,.81-462.81,1.11-694.21,.03-22.43,0-44.85,0-73.89Z"/>
  <path class="cls-2" d="M1947.03,1043.03h247.96c5.96,76.61,11.66,149.82,17.93,230.44-42.26-51.7-74.14-102.82-117.66-140.49-42.37-36.67-96.67-59.55-148.24-89.96Z"/>
  <path class="cls-2" d="M1742.12,1043.89c-50.33,30.46-105.82,55.1-149.68,93.15-42.04,36.47-72,86.85-111.87,136.87,6-79.57,11.51-152.67,17.34-230.02h244.21Z"/>
</svg>